<?xml version="1.0" encoding="UTF-8"?>
<svg id="Layer_2" data-name="Layer 2" xmlns="http://www.w3.org/2000/svg" viewBox="0 0 2831.1831 541.7158">
  <defs>
    <style>
      .cls-1 {
        letter-spacing: .025em;
      }

      .cls-2 {
        font-family: ProximaNova-Extrabld, 'Proxima Nova';
        font-size: 357.787px;
      }

      .cls-3 {
        letter-spacing: .197em;
      }

      .cls-4 {
        letter-spacing: .33em;
      }

      .cls-5 {
        letter-spacing: .33em;
      }

      .cls-6 {
        letter-spacing: -.004em;
      }

      .cls-7 {
        letter-spacing: .32em;
      }

      .cls-8 {
        font-family: Condor-Regular, Condor;
        font-size: 195.1565px;
      }

      .cls-9 {
        letter-spacing: 0em;
      }
    </style>
  </defs>
  <g id="Layer_2-2" data-name="Layer 2">
    <text class="cls-2" transform="translate(746.522 298.0342) scale(.9001 1)"><tspan x="0" y="0">UR</tspan><tspan class="cls-6" x="500.8997" y="0">S</tspan><tspan class="cls-9" x="716.2834" y="0">A M</tspan><tspan class="cls-1" x="1371.0292" y="0">A</tspan><tspan x="1629.3456" y="0">JOR</tspan></text>
    <text class="cls-8" transform="translate(1002.647 500.3418)"><tspan class="cls-4" x="0" y="0">Global</tspan><tspan class="cls-7" x="924.4453" y="0"> </tspan><tspan class="cls-3" x="1030.0244" y="0">T</tspan><tspan class="cls-5" x="1189.2705" y="0">ech</tspan></text>
    <path d="M141.2222,138.1111s-63.7548,15.045-84.3104,34.5043c-22.5028,21.3026-45.9057,43.8054-54.6068,106.2131-3.076,22.0622,6.3008,60.008,5.4007,69.7589s-5.2629,38.8709-7.2009,50.856c-1.938,11.9851,2.1003,75.9094,5.4007,84.0104,5.117,12.56,.3,24.9031,0,29.1036s5.0568,10.0759,23.1029,13.5017,29.2956,2.2678,33.0041,2.4003c16.8021,.6001,36.9503,1.2466,42.3052-2.1003,9.6012-6.0007,2.7064-15.9469-3.0004-20.7026-5.4007-4.5006-20.0349-5.9296-26.6695-12.866s-6.6346-21.799-6.6346-27.0389c0-8.101,2.1985-25.0551,3.3004-27.6034,4.8006-11.1014,6.961-19.0528,7.5009-20.4025,1.2001-3.0004,13.5017-24.003,20.1025-26.4033,0,0,2.7003,16.202,3.9005,38.4047h0s3.7989,28.5599,9.9012,52.2065c2.4003,9.3011-2.4003,16.8021,2.4003,26.4033,2.3639,4.7277,36.0045,6.9009,50.4062,6.6008s29.1701,3.6308,37.5046,.6001c3.3004-1.2001,3.9005-9.9012,1.5002-14.7018-3.7809-7.5619-12.7409-9.4476-22.2027-12.6016-4.5006-1.5002-11.4008-1.9756-14.4018-7.801-5.1006-9.9012,1.2001-27.9034,1.2001-27.9034h0s2.0757-20.2173,6.0007-28.5035c5.4007-11.4014,8.8469-21.5199,13.8017-30.9038,0,0,19.376,5.8827,38.4047,6.6008,15.902,.6001,29.1036-.6001,46.5961-3.424,14.1834-2.2897,18.4472-1.5104,18.4472-1.5104,0,0-8.1653,20.6729-10.4365,37.9385-2.2712,17.2656,1.2001,41.4051,2.4003,47.4059s-10.1112,31.6119,3.6455,36.0585,60.5615,2.6744,74.0641,1.4462c13.5026-1.2282,6.3008-18.6023-2.1003-24.003-6.6717-4.289-18.9023-8.101-19.2024-15.6019s25.5032-58.8073,63.9079-82.8102c15.6467-9.7792,28.0408-19.5459,36.6045-22.8028,8.7588-3.3312,9.7741,5.1605,11.7202,14.3271,2.5784,12.1447,6.8821,24.6777,17.0834,39.9796,0,0,15.3738,32.021,19.9884,41.5137,4.6146,9.4927,9.7152,44.597,44.4848,45.9497,21.6022,.8404,38.6302,.7215,51.0411-.7526,4.593-.5455,13.7417-4.0805,12.3015-12.0015-1.2001-6.6008-7.7862-10.7312-21.9027-13.2016-12.0015-2.1003-25.795-11.1721-28.2035-21.0026-1.1443-4.6705-7.3897-34.0087-6.0951-57.5093,1.2945-23.5007-6.5064-109.9114-2.606-138.4149,0,0-.9001,9.6012,0,0,2.6698-28.4782,20.7202-35.3855,31.5127-48.7466,10.7925-13.3611,38.696-36.1639,48.5972-58.6667,9.9012-22.5028,36.3045-33.6042,50.4062-62.7078,0,0,32.0932-35.1775,35.1043-40.505,3.7673-6.6652,6.415-15.8495,9.8355-25.1198,.2401-.6507,.3658-1.3385,.3658-2.0321v-3.4793c0-.9041-.3293-1.7752-.9286-2.4521-2.0901-2.3609-7.256-7.7874-10.7729-8.0219-4.5006-.3-33.3041,6.9009-33.3041,6.9009,0,0-21.0026,3.9005-23.4029,3.9005s-9.9012-7.2009-28.5035-6.9009-51.6064,15.0019-63.0078,22.8028-22.4557-2.7471-30.3037-.3c-7.848,2.447-16.5597,20.1687-8.401,25.8032,8.1586,5.6345-42.0052,46.5057-56.1069,48.0059-14.1017,1.5002-65.4402-5.8845-83.1103-.3-17.67,5.5845-80.71,21.9027-96.912,19.2024-16.202-2.7003-105.3508-14.221-138.9172-.6001Z"/>
  </g>
</svg>